<svg width="921" height="149" viewBox="0 0 921 149" fill="none" xmlns="http://www.w3.org/2000/svg">
<path d="M921 4.32877V145.037H874.244V119.436C870.291 129.068 864.293 136.41 856.223 141.435C848.153 146.433 838.175 148.945 826.343 148.945C815.765 148.945 806.55 146.321 798.671 141.045C790.792 135.768 784.713 128.537 780.432 119.352C776.179 110.167 774.026 99.7814 774.026 88.1674C773.889 76.1904 776.152 65.4419 780.814 55.9218C785.449 46.4016 792.019 38.9754 800.471 33.643C808.922 28.3106 818.573 25.6304 829.397 25.6304C851.67 25.6304 866.61 35.5414 874.244 55.3355V4.32877H921ZM867.265 105.281C872.036 100.535 874.408 94.3652 874.408 86.8273C874.408 79.5406 872.09 73.594 867.456 69.0433C862.821 64.4927 856.469 62.2034 848.481 62.2034C840.602 62.2034 834.304 64.5206 829.587 69.155C824.871 73.7895 822.526 79.7919 822.526 87.2182C822.526 94.6444 824.871 100.703 829.587 105.393C834.304 110.083 840.52 112.428 848.29 112.428C856.169 112.4 862.494 110.027 867.265 105.281Z" fill="white"/>
<path d="M921 4.32877V145.037H874.244V119.436C870.291 129.068 864.293 136.41 856.223 141.435C848.153 146.433 838.175 148.945 826.343 148.945C815.765 148.945 806.55 146.321 798.671 141.045C790.792 135.768 784.713 128.537 780.432 119.352C776.179 110.167 774.026 99.7814 774.026 88.1674C773.889 76.1904 776.152 65.4419 780.814 55.9218C785.449 46.4016 792.019 38.9754 800.471 33.643C808.922 28.3106 818.573 25.6304 829.397 25.6304C851.67 25.6304 866.61 35.5414 874.244 55.3355V4.32877H921ZM867.265 105.281C872.036 100.535 874.408 94.3652 874.408 86.8273C874.408 79.5406 872.09 73.594 867.456 69.0433C862.821 64.4927 856.469 62.2034 848.481 62.2034C840.602 62.2034 834.304 64.5206 829.587 69.155C824.871 73.7895 822.526 79.7919 822.526 87.2182C822.526 94.6444 824.871 100.703 829.587 105.393C834.304 110.083 840.52 112.428 848.29 112.428C856.169 112.4 862.494 110.027 867.265 105.281Z" fill="white"/>
<path d="M765.658 32.8605V75.0729C760.805 71.8065 754.535 70.1872 746.765 70.1872C736.596 70.1872 728.744 73.342 723.292 79.6515C717.812 85.961 715.086 95.7883 715.086 109.077V145.036H668.329V30.7108H714.131V67.0604C716.667 53.7713 720.783 43.9719 726.454 37.6345C732.098 31.325 739.404 28.1702 748.292 28.1702C755.026 28.1702 760.805 29.7336 765.658 32.8605Z" fill="white"/>
<path d="M765.658 32.8605V75.0729C760.805 71.8065 754.535 70.1872 746.765 70.1872C736.596 70.1872 728.744 73.342 723.292 79.6515C717.812 85.961 715.086 95.7883 715.086 109.077V145.036H668.329V30.7108H714.131V67.0604C716.667 53.7713 720.783 43.9719 726.454 37.6345C732.098 31.325 739.404 28.1702 748.292 28.1702C755.026 28.1702 760.805 29.7336 765.658 32.8605Z" fill="white"/>
<path d="M539.239 140.738C528.224 135.266 519.827 127.784 514.047 118.264C508.268 108.743 505.351 98.1344 505.351 86.4088C505.351 74.6831 508.24 64.2137 514.047 55.0286C519.854 45.8435 528.197 38.6406 539.157 33.4198C550.089 28.1991 563.148 25.6027 578.279 25.6027C593.41 25.6027 606.469 28.1991 617.401 33.4198C628.334 38.6406 636.676 45.7876 642.402 54.9169C648.127 64.0462 650.989 74.5156 650.989 86.3808C650.989 98.1065 648.127 108.715 642.402 118.236C636.676 127.756 628.307 135.238 617.292 140.71C606.278 146.182 593.274 148.918 578.252 148.918C563.23 148.918 550.226 146.21 539.239 140.738ZM597.227 106.063C601.862 101.317 604.206 95.0355 604.206 87.2184C604.206 79.4013 601.889 73.1755 597.227 68.569C592.592 63.9345 586.267 61.6173 578.252 61.6173C570.1 61.6173 563.721 63.9345 559.059 68.569C554.424 73.2034 552.107 79.4013 552.107 87.2184C552.107 95.0355 554.424 101.317 559.059 106.063C563.693 110.809 570.1 113.21 578.252 113.21C586.267 113.182 592.592 110.809 597.227 106.063Z" fill="white"/>
<path d="M539.239 140.738C528.224 135.266 519.827 127.784 514.047 118.264C508.268 108.743 505.351 98.1344 505.351 86.4088C505.351 74.6831 508.24 64.2137 514.047 55.0286C519.854 45.8435 528.197 38.6406 539.157 33.4198C550.089 28.1991 563.148 25.6027 578.279 25.6027C593.41 25.6027 606.469 28.1991 617.401 33.4198C628.334 38.6406 636.676 45.7876 642.402 54.9169C648.127 64.0462 650.989 74.5156 650.989 86.3808C650.989 98.1065 648.127 108.715 642.402 118.236C636.676 127.756 628.307 135.238 617.292 140.71C606.278 146.182 593.274 148.918 578.252 148.918C563.23 148.918 550.226 146.21 539.239 140.738ZM597.227 106.063C601.862 101.317 604.206 95.0355 604.206 87.2184C604.206 79.4013 601.889 73.1755 597.227 68.569C592.592 63.9345 586.267 61.6173 578.252 61.6173C570.1 61.6173 563.721 63.9345 559.059 68.569C554.424 73.2034 552.107 79.4013 552.107 87.2184C552.107 95.0355 554.424 101.317 559.059 106.063C563.693 110.809 570.1 113.21 578.252 113.21C586.267 113.182 592.592 110.809 597.227 106.063Z" fill="white"/>
<path d="M403.633 140.736C392.7 135.264 384.44 127.838 378.932 118.457C373.425 109.077 370.644 98.5237 370.644 86.798C370.644 75.0723 373.507 64.5751 379.232 55.3341C384.958 46.0931 393.355 38.8344 404.423 33.5578C415.492 28.2813 428.715 25.657 444.118 25.657C463.202 25.657 479.042 29.7609 491.637 37.9689V73.7323C487.193 70.6054 482.014 68.0648 476.098 66.1106C470.181 64.1563 463.856 63.1791 457.095 63.1791C445.263 63.1791 436.021 65.3847 429.342 69.8237C422.662 74.2627 419.309 80.0418 419.309 87.2168C419.309 94.2522 422.553 100.003 429.042 104.526C435.53 109.021 444.936 111.282 457.286 111.282C463.638 111.282 469.909 110.333 476.098 108.463C482.259 106.564 487.575 104.247 492.019 101.511V136.102C478.033 144.701 461.812 149 443.355 149C427.815 148.944 414.565 146.208 403.633 140.736Z" fill="white"/>
<path d="M403.633 140.736C392.7 135.264 384.44 127.838 378.932 118.457C373.425 109.077 370.644 98.5237 370.644 86.798C370.644 75.0723 373.507 64.5751 379.232 55.3341C384.958 46.0931 393.355 38.8344 404.423 33.5578C415.492 28.2813 428.715 25.657 444.118 25.657C463.202 25.657 479.042 29.7609 491.637 37.9689V73.7323C487.193 70.6054 482.014 68.0648 476.098 66.1106C470.181 64.1563 463.856 63.1791 457.095 63.1791C445.263 63.1791 436.021 65.3847 429.342 69.8237C422.662 74.2627 419.309 80.0418 419.309 87.2168C419.309 94.2522 422.553 100.003 429.042 104.526C435.53 109.021 444.936 111.282 457.286 111.282C463.638 111.282 469.909 110.333 476.098 108.463C482.259 106.564 487.575 104.247 492.019 101.511V136.102C478.033 144.701 461.812 149 443.355 149C427.815 148.944 414.565 146.208 403.633 140.736Z" fill="white"/>
<path d="M268.515 144.841C258.21 142.105 248.913 138.141 240.653 132.92V100.479C246.896 105.421 255.266 109.497 265.762 112.707C276.258 115.89 286.4 117.481 296.215 117.481C300.795 117.481 304.257 116.867 306.602 115.639C308.946 114.41 310.119 112.931 310.119 111.228C310.119 109.273 309.492 107.654 308.21 106.342C306.929 105.03 304.448 103.941 300.768 103.02L277.867 97.7432C264.753 94.6163 255.456 90.289 249.922 84.7333C244.388 79.2054 241.634 71.9467 241.634 62.957C241.634 55.3911 244.033 48.8303 248.886 43.2187C253.712 37.6072 260.582 33.2798 269.497 30.2367C278.412 27.1657 288.826 25.6302 300.795 25.6302C311.482 25.6302 321.269 26.8028 330.184 29.1479C339.099 31.4931 346.46 34.4803 352.322 38.1376V68.8198C346.324 65.1625 339.454 62.2869 331.602 60.1093C323.777 57.9596 315.735 56.8987 307.447 56.8987C295.478 56.8987 289.508 58.9926 289.508 63.1524C289.508 65.1067 290.435 66.5584 292.289 67.5356C294.143 68.5127 297.55 69.5178 302.485 70.5787L321.569 74.0964C334.028 76.3019 343.325 80.1826 349.432 85.7104C355.539 91.2382 358.592 99.4183 358.592 110.251C358.592 122.116 353.549 131.524 343.434 138.504C333.319 145.483 318.979 148.973 300.386 148.973C289.453 148.945 278.821 147.577 268.515 144.841Z" fill="white"/>
<path d="M268.515 144.841C258.21 142.105 248.913 138.141 240.653 132.92V100.479C246.896 105.421 255.266 109.497 265.762 112.707C276.258 115.89 286.4 117.481 296.215 117.481C300.795 117.481 304.257 116.867 306.602 115.639C308.946 114.41 310.119 112.931 310.119 111.228C310.119 109.273 309.492 107.654 308.21 106.342C306.929 105.03 304.448 103.941 300.768 103.02L277.867 97.7432C264.753 94.6163 255.456 90.289 249.922 84.7333C244.388 79.2054 241.634 71.9467 241.634 62.957C241.634 55.3911 244.033 48.8303 248.886 43.2187C253.712 37.6072 260.582 33.2798 269.497 30.2367C278.412 27.1657 288.826 25.6302 300.795 25.6302C311.482 25.6302 321.269 26.8028 330.184 29.1479C339.099 31.4931 346.46 34.4803 352.322 38.1376V68.8198C346.324 65.1625 339.454 62.2869 331.602 60.1093C323.777 57.9596 315.735 56.8987 307.447 56.8987C295.478 56.8987 289.508 58.9926 289.508 63.1524C289.508 65.1067 290.435 66.5584 292.289 67.5356C294.143 68.5127 297.55 69.5178 302.485 70.5787L321.569 74.0964C334.028 76.3019 343.325 80.1826 349.432 85.7104C355.539 91.2382 358.592 99.4183 358.592 110.251C358.592 122.116 353.549 131.524 343.434 138.504C333.319 145.483 318.979 148.973 300.386 148.973C289.453 148.945 278.821 147.577 268.515 144.841Z" fill="white"/>
<path d="M196.485 42.8825C209.359 42.8825 219.795 33.2829 219.795 21.4412C219.795 9.59957 209.359 0 196.485 0C183.612 0 173.176 9.59957 173.176 21.4412C173.176 33.2829 183.612 42.8825 196.485 42.8825Z" fill="white"/>
<path d="M196.485 42.8825C209.359 42.8825 219.795 33.2829 219.795 21.4412C219.795 9.59957 209.359 0 196.485 0C183.612 0 173.176 9.59957 173.176 21.4412C173.176 33.2829 183.612 42.8825 196.485 42.8825Z" fill="white"/>
<path d="M173.155 57.652C187.44 63.9615 205.161 64.2407 219.774 57.652V145.65H173.155V57.652Z" fill="white"/>
<path d="M173.155 57.652C187.44 63.9615 205.161 64.2407 219.774 57.652V145.65H173.155V57.652Z" fill="white"/>
<path d="M0 8.23666H74.4278C92.3668 8.23666 107.525 11.1122 119.957 16.8355C132.362 22.5588 141.658 30.5434 147.82 40.7615C153.981 50.9796 157.089 62.6773 157.089 75.8548C157.089 88.753 153.872 100.451 147.438 110.92C141.004 121.417 131.216 129.709 118.048 135.823C104.88 141.937 88.5773 145.008 69.0843 145.008H0V8.23666ZM68.3209 110.25C80.3984 110.25 89.6951 107.151 96.1836 100.981C102.672 94.7834 105.916 86.3521 105.916 75.6594C105.916 65.7484 103.027 57.8475 97.2469 51.9288C91.4672 46.0101 82.7157 43.0229 71.0199 43.0229H47.7374V110.25H68.3209Z" fill="white"/>
<path d="M0 8.23666H74.4278C92.3668 8.23666 107.525 11.1122 119.957 16.8355C132.362 22.5588 141.658 30.5434 147.82 40.7615C153.981 50.9796 157.089 62.6773 157.089 75.8548C157.089 88.753 153.872 100.451 147.438 110.92C141.004 121.417 131.216 129.709 118.048 135.823C104.88 141.937 88.5773 145.008 69.0843 145.008H0V8.23666ZM68.3209 110.25C80.3984 110.25 89.6951 107.151 96.1836 100.981C102.672 94.7834 105.916 86.3521 105.916 75.6594C105.916 65.7484 103.027 57.8475 97.2469 51.9288C91.4672 46.0101 82.7157 43.0229 71.0199 43.0229H47.7374V110.25H68.3209Z" fill="white"/>
</svg>
