<svg width="182" height="141" viewBox="0 0 182 141" fill="none" xmlns="http://www.w3.org/2000/svg">
<path d="M154.171 11.8085C142.39 6.29203 129.793 2.28269 116.623 0C115.006 2.92653 113.116 6.8627 111.814 9.99408C97.8136 7.88699 83.9424 7.88699 70.2001 9.99408C68.8975 6.8627 66.965 2.92653 65.3331 0C52.149 2.28269 39.5376 6.30666 27.7565 11.8378C3.99372 47.7755 -2.44799 82.8207 0.772867 117.368C16.5336 129.148 31.8076 136.303 46.8239 140.985C50.5315 135.879 53.8382 130.45 56.6869 124.729C51.2615 122.665 46.0652 120.119 41.1552 117.163C42.4579 116.198 43.7319 115.188 44.963 114.149C74.9097 128.167 107.447 128.167 137.036 114.149C138.282 115.188 139.556 116.198 140.844 117.163C135.92 120.134 130.709 122.68 125.284 124.743C128.133 130.45 131.425 135.893 135.147 141C150.177 136.318 165.466 129.162 181.226 117.368C185.006 77.3188 174.77 42.5956 154.171 11.8085ZM60.7666 96.1217C51.7769 96.1217 44.4047 87.7226 44.4047 77.4944C44.4047 67.2662 51.6194 58.8524 60.7666 58.8524C69.9138 58.8524 77.286 67.2516 77.1285 77.4944C77.1429 87.7226 69.9138 96.1217 60.7666 96.1217ZM121.233 96.1217C112.243 96.1217 104.871 87.7226 104.871 77.4944C104.871 67.2662 112.086 58.8524 121.233 58.8524C130.38 58.8524 137.752 67.2516 137.595 77.4944C137.595 87.7226 130.38 96.1217 121.233 96.1217Z" fill="white"/>
<path d="M154.171 11.8085C142.39 6.29203 129.793 2.28269 116.623 0C115.006 2.92653 113.116 6.8627 111.814 9.99408C97.8136 7.88699 83.9424 7.88699 70.2001 9.99408C68.8975 6.8627 66.965 2.92653 65.3331 0C52.149 2.28269 39.5376 6.30666 27.7565 11.8378C3.99372 47.7755 -2.44799 82.8207 0.772867 117.368C16.5336 129.148 31.8076 136.303 46.8239 140.985C50.5315 135.879 53.8382 130.45 56.6869 124.729C51.2615 122.665 46.0652 120.119 41.1552 117.163C42.4579 116.198 43.7319 115.188 44.963 114.149C74.9097 128.167 107.447 128.167 137.036 114.149C138.282 115.188 139.556 116.198 140.844 117.163C135.92 120.134 130.709 122.68 125.284 124.743C128.133 130.45 131.425 135.893 135.147 141C150.177 136.318 165.466 129.162 181.226 117.368C185.006 77.3188 174.77 42.5956 154.171 11.8085ZM60.7666 96.1217C51.7769 96.1217 44.4047 87.7226 44.4047 77.4944C44.4047 67.2662 51.6194 58.8524 60.7666 58.8524C69.9138 58.8524 77.286 67.2516 77.1285 77.4944C77.1429 87.7226 69.9138 96.1217 60.7666 96.1217ZM121.233 96.1217C112.243 96.1217 104.871 87.7226 104.871 77.4944C104.871 67.2662 112.086 58.8524 121.233 58.8524C130.38 58.8524 137.752 67.2516 137.595 77.4944C137.595 87.7226 130.38 96.1217 121.233 96.1217Z" fill="white"/>
</svg>
